<?xml version="1.0"?>

<!DOCTYPE svg PUBLIC '-//W3C//DTD SVG 1.0//EN' 'http://www.w3.org/TR/2001/REC-SVG-20010904/DTD/svg10.dtd'>
<svg fill-opacity="1" xmlns:xlink="http://www.w3.org/1999/xlink" color-rendering="auto" color-interpolation="auto" text-rendering="auto" stroke="black" stroke-linecap="square" stroke-miterlimit="10" shape-rendering="auto" stroke-opacity="1" fill="black" stroke-dasharray="none" font-weight="normal" stroke-width="1" xmlns="http://www.w3.org/2000/svg" font-family="&apos;Dialog&apos;" font-style="normal" stroke-linejoin="miter" font-size="12" stroke-dashoffset="0" image-rendering="auto">
  <!--Unicode Character 'CJK COMPATIBILITY IDEOGRAPH-2F804' (U+2F804)-->
  <defs id="genericDefs" />
  <g>
    <g>
      <path d="M83.8125 195.75 Q87.75 197.7188 83.25 200.25 Q78.75 202.5 77.625 205.3125 Q75.6562 210.6562 75.6562 227.8125 L75.6562 314.1562 Q75.6562 347.0625 76.7812 369.2812 Q77.0625 371.5312 75.375 372.6562 L63.5625 380.25 Q59.9062 383.0625 60.1875 377.1562 Q61.875 339.75 62.1562 314.1562 L62.1562 227.8125 Q61.5938 212.9062 61.3125 202.5 Q36.2812 241.3125 19.125 262.4062 Q16.3125 265.5 14.3438 263.5312 Q12.0938 261.5625 14.9062 258.75 Q40.7812 226.9688 61.875 179.7188 Q82.9688 133.3125 84.0938 117.8438 Q84.6562 113.0625 89.1562 115.875 Q107.1562 126.8438 107.1562 129.375 Q106.3125 131.0625 104.3438 130.7812 Q101.5312 130.5 98.7188 133.0312 Q97.5938 133.3125 68.625 189.8438 Q79.5938 193.2188 83.8125 195.75 ZM143.7188 186.75 Q124.875 218.5312 101.25 246.6562 Q98.4375 249.75 96.4688 247.7812 Q94.5 245.8125 97.0312 243 Q119.8125 214.875 138.6562 173.5312 Q157.2188 132.4688 158.3438 118.9688 Q158.9062 114.1875 163.4062 117 Q174.375 123.4688 178.0312 126.8438 Q181.4062 129.375 181.125 130.5 Q180.8438 132.1875 178.3125 131.9062 Q175.7812 131.625 172.9688 134.1562 Q172.4062 134.1562 148.7812 178.0312 L238.7812 178.0312 Q242.4375 178.0312 245.25 174.6562 L255.0938 163.125 Q257.625 160.875 259.5938 162.8438 Q266.9062 170.7188 272.25 177.75 Q275.3438 181.9688 274.5 184.5 Q273.6562 186.4688 269.4375 186.75 L143.7188 186.75 ZM216.5625 246.6562 Q218.8125 245.25 220.7812 248.0625 Q265.5 291.6562 271.4062 315.2812 Q273.375 323.7188 270.5625 329.625 Q267.75 335.5312 265.2188 337.5 Q262.9688 339.4688 261 339.1875 Q259.0312 338.3438 258.75 334.6875 Q255.6562 302.0625 216 250.5938 Q214.5938 248.625 216.5625 246.6562 ZM140.9062 239.625 Q158.9062 250.5938 158.9062 253.125 Q158.625 254.8125 156.0938 254.5312 Q149.9062 253.6875 142.3125 271.6875 Q121.7812 312.75 94.5 345.6562 Q91.6875 348.75 89.7188 346.7812 Q87.4688 344.8125 90 342 Q107.7188 318.9375 121.5 285.75 Q135.5625 252.5625 135.8438 241.5938 Q136.4062 236.8125 140.9062 239.625 ZM187.5938 363.9375 Q180.5625 374.3438 173.5312 378 Q171.2812 379.9688 170.1562 379.9688 Q169.3125 379.6875 167.625 374.3438 Q164.8125 366.1875 162 363.375 Q159.1875 359.7188 142.875 358.0312 Q138.375 357.4688 138.6562 353.8125 Q138.9375 349.875 143.4375 350.1562 Q169.0312 354.375 174.9375 351.5625 Q178.875 349.875 179.1562 343.6875 L179.1562 241.3125 Q178.875 218.8125 178.0312 205.0312 Q177.1875 200.5312 180 201.375 Q196.0312 207 201.375 209.8125 Q204.75 212.0625 200.5312 214.0312 Q195.4688 216.2812 194.3438 218.8125 Q192.6562 224.1562 192.6562 241.3125 L192.6562 346.5 Q192.0938 356.9062 187.5938 363.9375 Z" stroke="none" />
    </g>
  </g>
</svg>
